{
  "source": "C:\\Users\\Peter\\Desktop\\stuff\\MIUN\\quantitative_research\\video_compression\\videos\\BVI-HD\\BVI-HD_CDVL_videos\\ORIG\\BridgeRiver_1920x1080_30fps.mp4",
  "output": "C:\\Users\\Peter\\Desktop\\stuff\\MIUN\\quantitative_research\\video_compression\\compressed_videos\\BVI-HD\\vp9\\2.5\\BridgeRiver_1920x1080_30fps_vp9.webm",
  "codec": "vp9",
  "ok": "Input #0, mov,mp4,m4a,3gp,3g2,mj2, from 'C:\\Users\\Peter\\Desktop\\stuff\\MIUN\\quantitative_research\\video_compression\\videos\\BVI-HD\\BVI-HD_CDVL_videos\\ORIG\\BridgeRiver_1920x1080_30fps.mp4':\n  Metadata:\n    major_brand     : isom\n    minor_version   : 512\n    compatible_brands: isomiso2avc1mp41\n    encoder         : Lavf54.28.101\n  Duration: 00:00:05.00, start: 0.000000, bitrate: 274913 kb/s\n  Stream #0:0[0x1](und): Video: h264 (High 4:4:4 Predictive) (avc1 / 0x31637661), yuv420p(progressive), 1920x1080, 274910 kb/s, 30 fps, 30 tbr, 30 tbn (default)\n    Metadata:\n      handler_name    : VideoHandler\n      vendor_id       : [0][0][0][0]\n[out#0/webm @ 000001a7c33a9240] Codec AVOption b:a (set bitrate (in bits/s)) has not been used for any stream. The most likely reason is either wrong type (e.g. a video option with no video streams) or that it is a private option of some decoder which was not actually used for any stream.\nStream mapping:\n  Stream #0:0 -> #0:0 (h264 (native) -> vp9 (libvpx-vp9))\nPress [q] to stop, [?] for help\n[libvpx-vp9 @ 000001a7c3e604c0] v1.15.2-100-g40561f514\nOutput #0, webm, to 'C:\\Users\\Peter\\Desktop\\stuff\\MIUN\\quantitative_research\\video_compression\\compressed_videos\\BVI-HD\\vp9\\2.5\\BridgeRiver_1920x1080_30fps_vp9.webm':\n  Metadata:\n    major_brand     : isom\n    minor_version   : 512\n    compatible_brands: isomiso2avc1mp41\n    encoder         : Lavf62.3.100\n  Stream #0:0(und): Video: vp9, yuv420p(tv, progressive), 1920x1080, q=2-31, 2500 kb/s, 30 fps, 1k tbn (default)\n    Metadata:\n      encoder         : Lavc62.11.100 libvpx-vp9\n      handler_name    : VideoHandler\n      vendor_id       : [0][0][0][0]\n    Side data:\n      cpb: bitrate max/min/avg: 0/0/0 buffer size: 2500000 vbv_delay: N/A\nframe=    0 fps=0.0 q=0.0 size=       0KiB time=N/A bitrate=N/A speed=N/A elapsed=0:00:00.51    \nframe=    2 fps=1.8 q=38.0 size=       1KiB time=00:00:00.06 bitrate=  76.1kbits/s speed=0.0588x elapsed=0:00:01.13    \nframe=    7 fps=4.2 q=63.0 size=       1KiB time=00:00:00.23 bitrate=  21.7kbits/s speed=0.141x elapsed=0:00:01.65    \nframe=   10 fps=4.6 q=62.0 size=       1KiB time=00:00:00.33 bitrate=  15.2kbits/s speed=0.154x elapsed=0:00:02.16    \nframe=   15 fps=5.6 q=62.0 size=       1KiB time=00:00:00.50 bitrate=  10.1kbits/s speed=0.186x elapsed=0:00:02.69    \nframe=   18 fps=5.6 q=62.0 size=       1KiB time=00:00:00.60 bitrate=   8.5kbits/s speed=0.186x elapsed=0:00:03.22    \nframe=   22 fps=5.9 q=62.0 size=       1KiB time=00:00:00.73 bitrate=   6.9kbits/s speed=0.196x elapsed=0:00:03.75    \nframe=   26 fps=6.1 q=62.0 size=       1KiB time=00:00:00.86 bitrate=   5.9kbits/s speed=0.203x elapsed=0:00:04.27    \nframe=   30 fps=6.2 q=62.0 size=       1KiB time=00:00:01.00 bitrate=   5.1kbits/s speed=0.208x elapsed=0:00:04.80    \nframe=   33 fps=6.2 q=61.0 size=       1KiB time=00:00:01.10 bitrate=   4.6kbits/s speed=0.206x elapsed=0:00:05.34    \nframe=   37 fps=6.3 q=62.0 size=       1KiB time=00:00:01.23 bitrate=   4.1kbits/s speed=0.211x elapsed=0:00:05.85    \nframe=   40 fps=6.3 q=62.0 size=       1KiB time=00:00:01.33 bitrate=   3.8kbits/s speed=0.209x elapsed=0:00:06.38    \nframe=   44 fps=6.4 q=63.0 size=       1KiB time=00:00:01.46 bitrate=   3.5kbits/s speed=0.212x elapsed=0:00:06.90    \nframe=   48 fps=6.5 q=62.0 size=       1KiB time=00:00:01.60 bitrate=   3.2kbits/s speed=0.215x elapsed=0:00:07.42    \nframe=   52 fps=6.5 q=62.0 size=       1KiB time=00:00:01.73 bitrate=   2.9kbits/s speed=0.218x elapsed=0:00:07.95    \nframe=   56 fps=6.6 q=62.0 size=       1KiB time=00:00:01.86 bitrate=   2.7kbits/s speed=0.22x elapsed=0:00:08.48    \nframe=   59 fps=6.5 q=62.0 size=       1KiB time=00:00:01.96 bitrate=   2.6kbits/s speed=0.218x elapsed=0:00:09.01    \nframe=   63 fps=6.6 q=62.0 size=       1KiB time=00:00:02.10 bitrate=   2.4kbits/s speed=0.22x elapsed=0:00:09.52    \nframe=   67 fps=6.7 q=62.0 size=       1KiB time=00:00:02.23 bitrate=   2.3kbits/s speed=0.222x elapsed=0:00:10.05    \nframe=   70 fps=6.6 q=62.0 size=       1KiB time=00:00:02.33 bitrate=   2.2kbits/s speed=0.221x elapsed=0:00:10.57    \nframe=   74 fps=6.7 q=62.0 size=       1KiB time=00:00:02.46 bitrate=   2.1kbits/s speed=0.222x elapsed=0:00:11.08    \nframe=   78 fps=6.7 q=62.0 size=       1KiB time=00:00:02.60 bitrate=   2.0kbits/s speed=0.224x elapsed=0:00:11.60    \nframe=   82 fps=6.8 q=62.0 size=       1KiB time=00:00:02.73 bitrate=   1.9kbits/s speed=0.225x elapsed=0:00:12.13    \nframe=   86 fps=6.8 q=62.0 size=       1KiB time=00:00:02.86 bitrate=   1.8kbits/s speed=0.226x elapsed=0:00:12.69    \nframe=   90 fps=6.8 q=62.0 size=       1KiB time=00:00:03.00 bitrate=   1.7kbits/s speed=0.227x elapsed=0:00:13.22    \nframe=   94 fps=6.8 q=63.0 size=       1KiB time=00:00:03.13 bitrate=   1.6kbits/s speed=0.228x elapsed=0:00:13.76    \nframe=   98 fps=6.9 q=62.0 size=       1KiB time=00:00:03.26 bitrate=   1.6kbits/s speed=0.229x elapsed=0:00:14.29    \nframe=  102 fps=6.9 q=62.0 size=       1KiB time=00:00:03.40 bitrate=   1.5kbits/s speed=0.229x elapsed=0:00:14.82    \nframe=  106 fps=6.9 q=62.0 size=       1KiB time=00:00:03.53 bitrate=   1.4kbits/s speed=0.23x elapsed=0:00:15.35    \nframe=  110 fps=6.9 q=62.0 size=       1KiB time=00:00:03.66 bitrate=   1.4kbits/s speed=0.231x elapsed=0:00:15.87    \nframe=  114 fps=7.0 q=63.0 size=       1KiB time=00:00:03.80 bitrate=   1.3kbits/s speed=0.232x elapsed=0:00:16.39    \nframe=  118 fps=7.0 q=62.0 size=       1KiB time=00:00:03.93 bitrate=   1.3kbits/s speed=0.233x elapsed=0:00:16.91    \nframe=  121 fps=6.9 q=42.0 size=       1KiB time=00:00:04.03 bitrate=   1.3kbits/s speed=0.231x elapsed=0:00:17.44    \nframe=  125 fps=7.0 q=62.0 size=       1KiB time=00:00:04.16 bitrate=   1.2kbits/s speed=0.232x elapsed=0:00:17.96    \nframe=  126 fps=6.8 q=63.0 size=       1KiB time=00:00:04.20 bitrate=   1.2kbits/s speed=0.227x elapsed=0:00:18.47    \nframe=  126 fps=6.6 q=63.0 size=       1KiB time=00:00:04.20 bitrate=   1.2kbits/s speed=0.221x elapsed=0:00:18.99    \nframe=  126 fps=6.5 q=63.0 size=       1KiB time=00:00:04.20 bitrate=   1.2kbits/s speed=0.215x elapsed=0:00:19.50    \nframe=  126 fps=6.3 q=63.0 size=       1KiB time=00:00:04.20 bitrate=   1.2kbits/s speed=0.21x elapsed=0:00:20.03    \nframe=  126 fps=6.1 q=63.0 size=       1KiB time=00:00:04.20 bitrate=   1.2kbits/s speed=0.204x elapsed=0:00:20.55    \nframe=  126 fps=6.0 q=63.0 size=       1KiB time=00:00:04.20 bitrate=   1.2kbits/s speed=0.199x elapsed=0:00:21.09    \n[out#0/webm @ 000001a7c33a9240] video:1646KiB audio:0KiB subtitle:0KiB other streams:0KiB global headers:0KiB muxing overhead: 0.104651%\nframe=  150 fps=7.1 q=62.0 Lsize=    1648KiB time=00:00:05.00 bitrate=2699.8kbits/s speed=0.236x elapsed=0:00:21.14    \n",
  "seconds": 21.432836771011353,
  "probe_out": {}
}